<svg width="145" height="49" viewBox="0 0 145 49" fill="none" xmlns="http://www.w3.org/2000/svg">
<path d="M63.8382 27.8907C65.6694 27.8907 67.1548 26.6812 67.1548 24.8499C67.1548 22.9361 65.9137 21.8945 64 21.8945H54.2201V27.8907H63.8382Z" fill="#89BD23"/>
<path d="M63.1786 28.8976C65.3766 28.8976 67.1585 30.6795 67.1585 32.8775V35.7328H54.5036L54.5035 28.8975L63.1786 28.8976Z" fill="#89BD23"/>
<path d="M63.173 20.6942C65.3711 20.6942 67.1529 18.9123 67.1529 16.7143V13.8587L54.6341 13.8584V20.6943L63.173 20.6942Z" fill="#89BD23"/>
<path d="M47.5377 31.765C47.5377 33.963 49.3196 35.7449 51.5176 35.7449H55V30.2726V24.8002V21.8153V19.3278V13.8555H51.5176C49.3196 13.8555 47.5377 15.6373 47.5377 17.8354V24.8002V31.765Z" fill="#89BD23"/>
<path d="M24.8981 32.1641C24.8981 34.3622 26.7819 36.0518 28.9799 36.0518H34.1423V14.0356H24.8981V32.1641Z" fill="#89BD23"/>
<path d="M33.9548 19.0249C33.9548 16.2774 36.1822 14.0501 38.9297 14.0501H44.402V18.9712L44.3483 19.5148C44.0965 22.0602 41.9554 23.9998 39.3975 23.9998H33.9548V19.0249Z" fill="#89BD23"/>
<path d="M2 6.44855C2 4.25051 3.80196 2 6 2H11.6991V31.7598C11.6991 33.9578 9.91721 35.7397 7.71917 35.7397H2V6.44855Z" fill="#89BD23"/>
<path d="M19.6997 12.0865C21.8978 12.0856 24.0008 10.3626 24 8.16455V2.00439H11.261V12.0897L19.6997 12.0865Z" fill="#89BD23"/>
<path d="M11.0768 19.1375C11.0768 16.3899 13.3041 14.1626 16.0517 14.1626H21.5241V19.0837L21.4703 19.6272C21.2184 22.1726 19.0775 24.1124 16.5196 24.1124H11.0768V19.1375Z" fill="#89BD23"/>
<path d="M81.4984 18.8538C81.4984 16.1063 83.7258 13.8789 86.4733 13.8789H92.4432V19.8488C92.4432 22.5963 90.2158 24.8236 87.4683 24.8236H81.4984V18.8538Z" fill="#89BD23"/>
<path d="M70.6559 29.7737C70.6559 27.0262 72.8832 24.7988 75.6308 24.7988H81.6006V30.7687C81.6006 33.5162 79.3733 35.7436 76.6257 35.7436H70.6559V29.7737Z" fill="#89BD23"/>
<path d="M92.4432 29.7659C92.4432 27.0184 90.2158 24.791 87.4683 24.791H81.4984V30.7609C81.4984 33.5084 83.7258 35.7357 86.4733 35.7357H92.4432V29.7659Z" fill="#89BD23"/>
<path d="M81.594 18.8308C81.594 16.0833 79.3666 13.856 76.6191 13.856H70.6492V19.8258C70.6492 22.5733 72.8766 24.8007 75.6241 24.8007H81.594V18.8308Z" fill="#89BD23"/>
<path d="M95.9256 31.7509C95.9256 33.9489 97.7075 35.7308 99.9055 35.7308H107.29V30.2032V24.7308V21.7459V19.2585V13.8413H99.9055C97.7075 13.8413 95.9256 15.6232 95.9256 17.8212V24.786V31.7509Z" fill="#89BD23"/>
<path d="M117.231 30.7174C117.231 33.4776 114.994 35.7268 112.233 35.7268H110.76H107.281V30.7058C107.281 27.9583 109.509 25.731 112.256 25.731C115.004 25.731 117.231 27.9698 117.231 30.7174Z" fill="#89BD23"/>
<path d="M117.239 18.8518C117.239 16.0914 115.001 13.8423 112.241 13.8423H110.768H107.289V18.8632C107.289 21.6108 109.517 23.8381 112.264 23.8381C115.011 23.8381 117.239 21.5993 117.239 18.8518Z" fill="#89BD23"/>
<path d="M105.5 19H109V14.5H107H105.5V19Z" fill="#89BD23" stroke="#89BD23"/>
<path d="M106 35.23H109.5V30.73H107.5H106V35.23Z" fill="#89BD23" stroke="#89BD23"/>
<path d="M121.905 20.4702C122.778 17.6348 124.998 15.4154 127.834 14.5437L127.915 14.5185C129.147 14.1399 130.427 13.9473 131.716 13.9473H135.743H138.728H141.473C141.561 13.9473 141.606 14.0546 141.543 14.1173L131.265 24.3946L121.481 34.1746C121.418 34.2373 121.31 34.1929 121.31 34.1042V24.3492C121.31 23.0601 121.504 21.7782 121.883 20.5461L121.905 20.4702Z" fill="#89BD23"/>
<path d="M137.433 33.5025C138.543 32.8166 139.505 31.8868 140.221 30.7971L140.6 30.2204C141.991 28.1061 142.731 25.6303 142.729 23.0996L142.727 21.0092L142.723 18.0243L142.724 15.2884C142.724 15.1997 142.616 15.1553 142.554 15.218L132.283 25.4974L122.514 35.2927C122.451 35.3553 122.496 35.4625 122.584 35.4624L130.615 35.454C133.014 35.4516 135.394 34.7641 137.433 33.5025Z" fill="#89BD23"/>
<path d="M112.011 40.5132C112.979 40.5132 113.782 40.8644 114.419 41.5666C114.997 42.2073 115.287 42.9656 115.287 43.8415C115.287 44.7213 114.981 45.4911 114.366 46.151C113.757 46.807 112.971 47.1351 112.011 47.1351C111.046 47.1351 110.257 46.807 109.643 46.151C109.034 45.4911 108.728 44.7213 108.728 43.8415C108.728 42.9694 109.018 42.213 109.597 41.5725C110.234 40.8663 111.038 40.5132 112.011 40.5132ZM112.011 41.3062C111.339 41.3062 110.762 41.5551 110.28 42.0529C109.797 42.5507 109.556 43.1527 109.556 43.8589C109.556 44.3142 109.667 44.7387 109.886 45.1323C110.107 45.5259 110.404 45.8308 110.778 46.0468C111.152 46.259 111.564 46.3652 112.011 46.3652C112.459 46.3652 112.87 46.259 113.244 46.0468C113.618 45.8308 113.915 45.5259 114.135 45.1323C114.355 44.7387 114.465 44.3142 114.465 43.8589C114.465 43.1527 114.222 42.5507 113.736 42.0529C113.253 41.5551 112.678 41.3062 112.011 41.3062ZM117.743 37.8726L118.554 37.8724V47.1358H117.743L117.743 37.8726ZM121.305 37.8724H122.115V41.804C122.443 41.3718 122.804 41.0496 123.198 40.8374C123.591 40.6212 124.018 40.5132 124.477 40.5132C124.947 40.5132 125.364 40.6328 125.727 40.8721C126.093 41.1113 126.364 41.4336 126.538 41.8387C126.711 42.2401 126.798 42.871 126.798 43.7316V47.1398H125.988V43.9688C125.988 43.2433 125.959 42.7591 125.901 42.516C125.8 42.0992 125.617 41.7866 125.35 41.5783C125.089 41.366 124.743 41.2599 124.315 41.2599C123.824 41.2599 123.384 41.422 122.995 41.7461C122.609 42.0703 122.354 42.4716 122.231 42.95C122.154 43.2588 122.115 43.8299 122.115 44.6634V47.1398H121.305V37.8724ZM134.909 44.8834L135.592 45.2422C135.368 45.6822 135.109 46.0371 134.816 46.3073C134.523 46.5774 134.193 46.7839 133.826 46.9266C133.46 47.0656 133.045 47.1351 132.583 47.1351C131.556 47.1351 130.753 46.7993 130.174 46.1278C129.595 45.4525 129.306 44.6905 129.306 43.8415C129.306 43.0427 129.551 42.3308 130.041 41.7056C130.662 40.9107 131.494 40.5132 132.536 40.5132C133.609 40.5132 134.465 40.9203 135.106 41.7346C135.561 42.3095 135.793 43.0273 135.8 43.8878H130.14C130.155 44.6209 130.388 45.2229 130.84 45.6938C131.291 46.1606 131.849 46.3942 132.512 46.3942C132.833 46.3942 133.144 46.3381 133.445 46.2262C133.749 46.1144 134.008 45.9658 134.22 45.7806C134.433 45.5954 134.662 45.2962 134.909 44.8834ZM134.909 43.1874C134.801 42.7552 134.643 42.4099 134.435 42.1513C134.23 41.8927 133.958 41.6844 133.618 41.5261C133.279 41.368 132.921 41.2889 132.547 41.2889C131.93 41.2889 131.399 41.4876 130.955 41.885C130.631 42.1745 130.386 42.6085 130.221 43.1874H134.909Z" fill="#8B8B8B"/>
<path d="M62.3844 40.5225C63.3525 40.5225 64.1557 40.8737 64.7919 41.5759C65.3708 42.2166 65.6602 42.9748 65.6602 43.8508C65.6602 44.7306 65.354 45.5004 64.7395 46.1603C64.13 46.8163 63.3446 47.1443 62.3844 47.1443C61.4193 47.1443 60.63 46.8163 60.0165 46.1603C59.407 45.5004 59.1017 44.7306 59.1017 43.8508C59.1017 42.9787 59.3912 42.2223 59.9701 41.5818C60.6072 40.8756 61.4114 40.5225 62.3844 40.5225ZM62.3844 41.3155C61.7127 41.3155 61.1358 41.5644 60.6537 42.0622C60.1706 42.5599 59.9296 43.1619 59.9296 43.8682C59.9296 44.3235 60.0402 44.748 60.2595 45.1415C60.4798 45.5352 60.7772 45.8401 61.1516 46.0561C61.525 46.2683 61.9369 46.3745 62.3844 46.3745C62.8319 46.3745 63.2429 46.2683 63.6173 46.0561C63.9917 45.8401 64.288 45.5352 64.5083 45.1415C64.7286 44.748 64.8383 44.3235 64.8383 43.8682C64.8383 43.1619 64.5953 42.5599 64.1092 42.0622C63.6262 41.5644 63.0512 41.3155 62.3844 41.3155Z" fill="#8B8B8B"/>
<path d="M137.83 40.5488V47.1413H138.643V43.0571L138.611 40.5488H137.83ZM141.496 41.3514L141.571 40.5425C141.5 40.5257 141.425 40.5132 141.345 40.5049C141.266 40.4924 141.184 40.486 141.101 40.486C140.645 40.486 140.254 40.5801 139.928 40.7683C139.602 40.9564 139.329 41.2135 139.106 41.5395C138.889 41.8614 138.718 42.223 138.593 42.6244C138.471 43.0257 138.387 43.4375 138.342 43.8597L138.643 44.486C138.701 43.9885 138.823 43.1344 139.007 42.7121C139.19 42.2857 139.447 41.9409 139.777 41.6775C140.108 41.4141 140.515 41.2825 141 41.2825C141.213 41.2825 141.378 41.3055 141.496 41.3514Z" fill="#8B8B8B"/>
<path d="M43.5734 40.6846V47.1456H42.7746V45.8998C42.4351 46.3128 42.0531 46.6233 41.6286 46.8318C41.2079 47.0401 40.7468 47.1443 40.2452 47.1443C39.3537 47.1443 38.5917 46.8221 37.9587 46.1776C37.3298 45.5294 37.0153 44.7421 37.0153 43.816C37.0153 42.9092 37.3336 42.1336 37.9704 41.4892C38.6071 40.8447 39.3731 40.5225 40.2683 40.5225C40.7854 40.5225 41.2523 40.6325 41.6691 40.8524C42.0897 41.0724 42.4582 41.4024 42.7746 41.8423V40.6846H43.5734ZM40.332 41.304C39.8804 41.304 39.4638 41.4158 39.0817 41.6396C38.6996 41.8596 38.3948 42.1702 38.1672 42.5716C37.9433 42.9729 37.8314 43.3974 37.8314 43.845C37.8314 44.2887 37.9453 44.7132 38.1729 45.1184C38.4006 45.5235 38.7055 45.8401 39.0875 46.0677C39.4733 46.2915 39.8863 46.4034 40.3262 46.4034C40.7699 46.4034 41.1905 46.2915 41.5881 46.0677C41.9855 45.8439 42.2903 45.5409 42.5025 45.1589C42.7187 44.7769 42.8268 44.3466 42.8268 43.8682C42.8268 43.1388 42.5855 42.5291 42.1031 42.039C41.6247 41.549 41.0343 41.304 40.332 41.304Z" fill="#8B8B8B"/>
<path d="M46.3 40.665H47.1046V41.7532C47.3863 41.3519 47.6757 41.0586 47.9729 40.8733C48.3819 40.6264 48.8122 40.5029 49.2636 40.5029C49.5685 40.5029 49.8579 40.5628 50.1318 40.6824C50.4059 40.802 50.6296 40.9622 50.8033 41.1628C50.977 41.3596 51.3344 41.7648 51.4618 42.1353C51.5218 42.0255 51.5949 41.9031 51.6724 41.7791C52.0465 41.1799 52.5756 40.6939 53.2696 40.5622C53.3123 40.5541 53.3578 40.5454 53.4062 40.5361C53.5186 40.5144 53.6336 40.5029 53.748 40.5016C53.8556 40.5004 53.971 40.4991 54.088 40.5009C54.7069 40.5104 55.3305 40.7595 55.8 41.1628V41.1628C56.4875 41.7532 56.6359 42.4415 56.6359 43.4274V47.1294H55.8718V43.4274C55.8718 43.0766 55.7487 42.3937 55.5641 42.0175C55.4603 41.8062 55.2888 41.6074 55.0855 41.4889V41.4889C55.0526 41.4698 54.9904 41.4334 54.9548 41.4201C54.6358 41.3013 54.2732 41.2659 53.9799 41.2615C53.6029 41.2559 53.2299 41.3507 52.9131 41.5553C52.9019 41.5625 52.8906 41.5699 52.8792 41.5774C52.8259 41.6128 52.7749 41.6511 52.7259 41.6922C52.5216 41.8635 51.9652 42.362 51.9652 42.7077C51.9652 43.1312 51.9255 43.5379 51.9255 44.4409V47.1294H51.1152V43.9945V43.9945C51.1152 43.1423 51.0068 42.2299 50.3584 41.677C50.3377 41.6593 50.3181 41.6441 50.3 41.6316V41.6316C49.6844 41.1976 48.8434 41.1453 48.2014 41.5392C48.1515 41.5699 48.104 41.6009 48.0597 41.6316C47.7356 41.8555 47.4943 42.1584 47.3362 42.5404C47.1818 42.9225 47.1046 43.5071 47.1046 44.2942V47.1372H46.3V40.665Z" fill="#8B8B8B"/>
<path d="M25.8581 40.6836V47.1559H25.0593V45.8988C24.7197 46.3118 24.3377 46.6224 23.9132 46.8308C23.4926 47.0391 23.0315 47.1434 22.5298 47.1434C21.6384 47.1434 20.8763 46.8211 20.2434 46.1766C19.6144 45.5284 19.3 44.7412 19.3 43.815C19.3 42.9083 19.6183 42.1326 20.2551 41.4882C20.8918 40.8437 21.6577 40.5215 22.553 40.5215C23.0701 40.5215 23.537 40.6315 23.9538 40.8514C24.3744 41.0714 24.7429 41.4014 25.0593 41.8413V40.6836H25.8581ZM22.6167 41.303C22.1651 41.303 21.7484 41.4148 21.3664 41.6387C20.9843 41.8587 20.6795 42.1692 20.4519 42.5706C20.228 42.9719 20.1161 43.3964 20.1161 43.844C20.1161 44.2877 20.23 44.7122 20.4576 45.1174C20.6853 45.5226 20.9901 45.8391 21.3722 46.0667C21.758 46.2905 22.1709 46.4025 22.6108 46.4025C23.0546 46.4025 23.4752 46.2905 23.8727 46.0667C24.2702 45.8429 24.575 45.54 24.7872 45.1579C25.0034 44.7759 25.1114 44.3456 25.1114 43.8672C25.1114 43.1379 24.8702 42.5281 24.3878 42.0381C23.9094 41.548 23.3189 41.303 22.6167 41.303Z" fill="#8B8B8B"/>
<path d="M28.7418 47.1355L28.7418 37.8741H29.5465V41.7496C29.886 41.3328 30.2661 41.0222 30.6868 40.8176C31.1074 40.6093 31.5685 40.5051 32.0702 40.5051C32.9615 40.5051 33.7217 40.8293 34.3508 41.4775C34.9836 42.122 35.3 42.9053 35.3 43.8276C35.3 44.7383 34.9816 45.5158 34.3449 46.1602C33.7082 46.8047 32.9423 47.1269 32.0469 47.1269C31.5338 47.1269 31.0688 47.0169 30.652 46.797C30.2352 46.577 29.8667 46.247 29.5465 45.8071V47.1355H28.7418ZM31.9833 46.3454C32.4348 46.3454 32.8516 46.2355 33.2336 46.0156C33.6156 45.7917 33.9186 45.4792 34.1423 45.0778C34.37 44.6765 34.4838 44.252 34.4838 43.8044C34.4838 43.3568 34.37 42.9304 34.1423 42.5252C33.9147 42.12 33.6079 41.8055 33.222 41.5817C32.84 41.354 32.4309 41.2402 31.9949 41.2402C31.5511 41.2402 31.1285 41.354 30.7273 41.5817C30.3297 41.8055 30.023 42.1085 29.8069 42.4905C29.5947 42.8725 29.4886 43.3028 29.4886 43.7812C29.4886 44.5106 29.7278 45.1203 30.2063 45.6104C30.6886 46.1004 31.281 46.3454 31.9833 46.3454Z" fill="#8B8B8B"/>
<path d="M18.0281 41.9825L17.3856 42.3818C16.8299 41.6448 16.0716 41.2763 15.1107 41.2763C14.3428 41.2763 13.7042 41.5233 13.1948 42.0172C12.6893 42.5112 12.4366 43.1112 12.4366 43.8173C12.4366 44.2766 12.5523 44.7088 12.7839 45.1139C13.0192 45.5191 13.3396 45.8337 13.7447 46.0574C14.1538 46.2813 14.6111 46.3932 15.1165 46.3932C16.0427 46.3932 16.799 46.0246 17.3856 45.2876L18.0281 45.7102C17.7271 46.1616 17.3219 46.5128 16.8125 46.7636C16.307 47.0106 15.7301 47.1341 15.0818 47.1341C14.0862 47.1341 13.2604 46.8177 12.6044 46.1847C11.9484 45.5519 11.6204 44.7821 11.6204 43.8752C11.6204 43.2655 11.7728 42.7002 12.0777 42.1792C12.3864 41.6545 12.8089 41.2454 13.3453 40.9521C13.8817 40.6589 14.4817 40.5122 15.1455 40.5122C15.5623 40.5122 15.9635 40.5759 16.3494 40.7033C16.7392 40.8306 17.0692 40.9966 17.3392 41.201C17.6093 41.4055 17.839 41.666 18.0281 41.9825Z" fill="#8B8B8B"/>
<path d="M85.5913 37.8752V47.1292H84.7926V45.88C84.453 46.2929 84.071 46.6035 83.6465 46.8119C83.2258 47.0203 82.7647 47.1245 82.2631 47.1245C81.3717 47.1245 80.6096 46.8023 79.9767 46.1578C79.3477 45.5095 79.0332 44.7223 79.0332 43.7962C79.0332 42.8894 79.3515 42.1137 79.9883 41.4694C80.625 40.8249 81.391 40.5026 82.2862 40.5026C82.8033 40.5026 83.2702 40.6127 83.687 40.8326C84.1076 41.0526 84.4761 41.3825 84.7926 41.8224V37.8752H85.5913ZM82.3499 41.2841C81.8984 41.2841 81.4816 41.396 81.0996 41.6198C80.7176 41.8398 80.4128 42.1504 80.1851 42.5518C79.9612 42.953 79.8493 43.3775 79.8493 43.8251C79.8493 44.2689 79.9632 44.6934 80.1908 45.0986C80.4185 45.5037 80.7234 45.8202 81.1054 46.0478C81.4913 46.2717 81.9042 46.3836 82.3441 46.3836C82.7879 46.3836 83.2084 46.2717 83.606 46.0478C84.0034 45.8241 84.3082 45.5211 84.5205 45.1391C84.7366 44.7571 84.8446 44.3268 84.8446 43.8483C84.8446 43.119 84.6034 42.5093 84.1211 42.0192C83.6426 41.5291 83.0522 41.2841 82.3499 41.2841ZM93.5639 44.8729L94.2469 45.2317C94.0231 45.6716 93.7645 46.0266 93.4713 46.2968C93.178 46.5669 92.8481 46.7733 92.4815 46.9161C92.1149 47.0551 91.7001 47.1245 91.2369 47.1245C90.2106 47.1245 89.4079 46.7887 88.829 46.1173C88.2502 45.442 87.9608 44.6799 87.9608 43.831C87.9608 43.0322 88.2059 42.3202 88.6959 41.6951C89.3172 40.9001 90.1488 40.5026 91.1907 40.5026C92.2634 40.5026 93.1201 40.9097 93.7607 41.724C94.2161 42.299 94.4475 43.0168 94.4553 43.8773H88.7943C88.8098 44.6104 89.0432 45.2124 89.4947 45.6832C89.9462 46.1501 90.5038 46.3836 91.1675 46.3836C91.4879 46.3836 91.7985 46.3276 92.0995 46.2157C92.4043 46.1038 92.6628 45.9553 92.875 45.77C93.0873 45.5848 93.3169 45.2857 93.5639 44.8729ZM93.5639 43.1769C93.4558 42.7447 93.2976 42.3993 93.0892 42.1407C92.8847 41.8822 92.6127 41.6738 92.2731 41.5156C91.9335 41.3574 91.5766 41.2783 91.2023 41.2783C90.5849 41.2783 90.0543 41.4771 89.6105 41.8745C89.2863 42.1639 89.0413 42.598 88.8753 43.1769H93.5639Z" fill="#8B8B8B"/>
<path d="M106.8 41.9886L106.157 42.388C105.602 41.6509 104.843 41.2824 103.882 41.2824C103.114 41.2824 102.476 41.5294 101.966 42.0233C101.461 42.5173 101.208 43.1173 101.208 43.8234C101.208 44.2827 101.324 44.7149 101.555 45.12C101.791 45.5252 102.111 45.8398 102.516 46.0635C102.925 46.2874 103.383 46.3993 103.888 46.3993C104.814 46.3993 105.57 46.0307 106.157 45.2937L106.8 45.7163C106.499 46.1677 106.094 46.5189 105.584 46.7697C105.078 47.0167 104.502 47.1402 103.853 47.1402C102.858 47.1402 102.032 46.8238 101.376 46.1909C100.72 45.558 100.392 44.7882 100.392 43.8813C100.392 43.2716 100.544 42.7063 100.849 42.1853C101.158 41.6606 101.581 41.2515 102.117 40.9582C102.653 40.665 103.253 40.5183 103.917 40.5183C104.334 40.5183 104.735 40.582 105.121 40.7094C105.511 40.8367 105.841 41.0027 106.11 41.2072C106.381 41.4116 106.61 41.6721 106.8 41.9886Z" fill="#8B8B8B"/>
<path d="M6.95829 37.9624L10.3403 47.1263H9.42087L8.44029 44.4624H6.84029H4.84029L3.66284 47.1263H2.84029L6.66041 37.9641C6.66042 37.9641 6.66042 37.964 6.66042 37.964V37.964C6.66042 37.9631 6.66115 37.9624 6.66204 37.9624H6.95829ZM6.80123 39.4624L5.14029 43.6263H8.15271L6.80123 39.4624Z" fill="#8B8B8B"/>
<g clip-path="url(#clip0_4423_50285)">
<path d="M68.583 45.4156C68.6309 45.5218 68.7029 45.6355 68.7988 45.7569C68.8947 45.8706 69.0146 45.9768 69.1585 46.0753C69.3024 46.1739 69.4703 46.2535 69.6621 46.3142C69.8619 46.3749 70.0818 46.4052 70.3216 46.4052C70.4974 46.4052 70.6733 46.3863 70.8492 46.3483C71.025 46.3104 71.1809 46.2498 71.3168 46.1663C71.4527 46.0829 71.5646 45.9768 71.6525 45.8479C71.7405 45.7114 71.7844 45.5483 71.7844 45.3588C71.7844 45.1692 71.7524 45.0137 71.6885 44.8924C71.6325 44.7635 71.5326 44.6535 71.3887 44.5625C71.2448 44.464 71.053 44.373 70.8132 44.2895C70.5734 44.1985 70.2736 44.0962 69.9139 43.9824C69.3384 43.8004 68.8827 43.5729 68.547 43.3C68.2193 43.027 68.0554 42.6516 68.0554 42.1739C68.0554 41.9615 68.1074 41.7568 68.2113 41.5596C68.3152 41.3549 68.4631 41.1767 68.6549 41.025C68.8548 40.8658 69.0946 40.7407 69.3743 40.6497C69.6621 40.5587 69.9899 40.5132 70.3576 40.5132C70.9091 40.5132 71.3767 40.6231 71.7604 40.843C72.1521 41.063 72.4519 41.3549 72.6597 41.7189L71.8204 42.0374C71.6765 41.772 71.4887 41.571 71.2568 41.4345C71.033 41.2904 70.7412 41.2184 70.3815 41.2184C70.2057 41.2184 70.0338 41.2374 69.8659 41.2753C69.6981 41.3056 69.5502 41.3587 69.4223 41.4345C69.2944 41.5028 69.1905 41.5938 69.1106 41.7075C69.0306 41.8137 68.9906 41.9464 68.9906 42.1056C68.9906 42.2649 69.0186 42.4014 69.0746 42.5151C69.1385 42.6213 69.2345 42.7199 69.3624 42.8108C69.4902 42.9018 69.6581 42.989 69.8659 43.0725C70.0738 43.1483 70.3296 43.2393 70.6333 43.3455C70.9851 43.4668 71.2928 43.5843 71.5566 43.6981C71.8204 43.8042 72.0402 43.9293 72.2161 44.0734C72.3999 44.2175 72.5358 44.3881 72.6237 44.5853C72.7117 44.7824 72.7556 45.0289 72.7556 45.3246C72.7556 45.59 72.6957 45.8327 72.5758 46.0526C72.4639 46.2725 72.3 46.4621 72.0842 46.6213C71.8763 46.7806 71.6205 46.9057 71.3168 46.9967C71.021 47.0877 70.6893 47.1332 70.3216 47.1332C69.9619 47.1332 69.6381 47.0915 69.3504 47.0081C69.0706 46.9246 68.8228 46.8185 68.607 46.6896C68.3991 46.5531 68.2233 46.4052 68.0794 46.246C67.9355 46.0867 67.8276 45.9313 67.7556 45.7796L68.583 45.4156Z" fill="#8B8B8B"/>
</g>
<path d="M75.5 31.5V18.5H87.5V31.5H75.5Z" fill="#89BD23" stroke="#89BD23"/>
<defs>
<clipPath id="clip0_4423_50285">
<rect width="6" height="8" fill="white" transform="translate(67.3 39.9624)"/>
</clipPath>
</defs>
</svg>
